ply
format ascii 1.0
comment VCGLIB generated
element vertex 8
property float x
property float y
property float z
property uchar red
property uchar green
property uchar blue
property uchar alpha
element face 12
property list uchar int vertex_indices
end_header
-0.7 -0.7 0 123 109 120 255 
-0.7 -0.7 1 24 0 121 255 
-0.7 0.7 0 4 0 44 255 
-0.7 0.7 1 223 0 10 255 
0.7 -0.7 0 24 199 25 255 
0.7 -0.7 1 123 10 56 255 
0.7 0.7 0 77 10 50 255 
0.7 0.7 1 23 0 199 255 
3 0 6 4 
3 0 2 6 
3 0 3 2 
3 0 1 3 
3 2 7 6 
3 2 3 7 
3 4 6 7 
3 4 7 5 
3 0 4 5 
3 0 5 1 
3 1 5 7 
3 1 7 3 
