ply
format ascii 1.0
comment VCGLIB generated
element vertex 453
property float x
property float y
property float z
property uchar red
property uchar green
property uchar blue
property uchar alpha
element face 948
property list uchar int vertex_indices
end_header
-0.08236711 0.1112718 0.02742505 189 63 62 255 
-0.1631019 0.1406717 0.03075835 190 64 64 255 
-0.3048441 0.2224158 0.2447424 192 62 62 255 
0.0689568 0.1358358 0.1039212 190 63 63 255 
0.0008216947 0.1191257 0.02814271 191 62 62 255 
0.3032703 -0.004348218 0.1882554 190 63 63 255 
0.3454863 -0.01529223 0.100581 189 63 64 255 
-0.07611869 -0.008620203 0.2363766 182 55 55 255 
0.2874783 0.06487978 0.1093704 190 64 63 255 
-0.2795307 0.3097938 -0.104928 191 62 64 255 
0.3731901 -0.08982599 0.02698471 181 54 54 255 
-0.08508989 0.3758178 -0.04157177 190 63 62 255 
-0.4041513 0.1579158 0.2786358 190 63 62 255 
-0.3081657 0.08575976 0.307071 189 62 63 255 
0.140691 0.1395918 0.1034808 189 62 63 255 
0.3477399 -0.01570022 0.03498829 191 62 62 255 
0.3373677 -0.0335862 -0.03125711 190 62 62 255 
-0.4437453 0.1582638 0.0991452 190 63 63 255 
-0.3862701 -0.003556192 0.1826256 191 63 62 255 
-0.2983455 0.2903779 0.1038474 190 63 64 255 
-0.3724497 0.2706978 0.1761162 179 52 53 255 
0.1407229 0.08847183 0.2042928 171 45 45 255 
-0.2048277 0.2234538 0.107412 190 63 63 255 
-0.3629061 0.1487478 0.304626 190 62 62 255 
0.06952002 0.1210518 0.1613034 185 58 57 255 
-0.1825173 0.1292537 0.1583172 190 63 62 255 
-0.3895995 -0.08967179 -0.03683315 189 63 63 255 
0.2096025 0.1196117 0.1077384 191 62 63 255 
-0.4391583 0.07527781 0.03661201 190 63 63 255 
-0.07146031 0.4276278 -0.05074793 184 55 57 255 
-0.3737721 0.2160078 0.252726 190 63 61 255 
-0.004765496 0.003421783 0.2455884 190 61 63 255 
-0.0164331 0.4445237 -0.1134348 184 55 54 255 
-0.1212609 0.3613698 -0.08170499 187 60 58 255 
0.1398923 0.1218078 0.1639392 179 52 51 255 
-0.1562709 0.1335318 0.1017294 192 64 63 255 
0.2181819 0.0726198 0.1909836 191 63 63 255 
-0.1590981 0.3556578 0.01044349 186 60 60 255 
-0.4339035 0.1478539 0.03887419 192 62 63 255 
-0.2391495 0.2233818 0.1856472 192 62 63 255 
0.3705357 -0.08583659 0.1023798 190 63 64 255 
0.3523683 -0.09351361 0.1678914 190 64 63 255 
-0.2334093 0.2808378 0.0977976 183 56 56 255 
-0.01871851 0.3120859 -0.04652171 175 49 48 255 
-0.3329733 -0.2528826 0.1055454 191 63 63 255 
-0.2994177 0.2849838 0.03141295 190 63 62 255 
-0.4379559 0.06511378 0.2438184 192 64 62 255 
0.2688477 0.06123781 0.1682442 190 63 62 255 
0.3564045 -0.09672058 -0.03688709 185 58 57 255 
-0.3163029 0.3452659 -0.120267 191 62 63 255 
0.0678543 0.08982182 0.2052516 175 46 48 255 
0.2850453 -0.08688056 0.2494152 192 62 63 255 
-0.0001149029 0.3262038 -0.09076379 191 64 64 255 
-0.3534237 0.3811938 -0.250083 182 54 54 255 
-0.4075737 -0.01423621 0.01689877 165 37 37 255 
0.3272211 0.01610583 0.120867 185 56 56 255 
0.06537858 -0.3901812 0.2781642 190 63 63 255 
0.1433501 -0.3843486 0.2774856 190 64 64 255 
-0.2305857 0.2990838 0.03591691 191 64 63 255 
-0.4419069 0.06634378 0.1755948 189 62 63 255 
-0.2521029 0.1235598 0.2363052 182 55 56 255 
-0.0008385032 0.1190778 0.1041492 189 63 62 255 
-0.2948355 0.2764338 0.1817514 189 64 62 255 
-0.1568883 0.3700758 -0.03648395 148 22 20 255 
-0.2386929 -0.3870942 0.2537016 185 58 57 255 
-0.3533013 0.2967738 -0.1048038 174 47 46 255 
-0.1557141 0.2897478 0.03347731 192 62 63 255 
-0.1513083 -0.3935652 0.252732 190 63 62 255 
-0.0475581 -0.114579 0.2988258 191 64 64 255 
0.0198885 0.1110678 0.1563798 191 62 61 255 
-0.4245867 -0.10734 0.03832711 190 62 64 255 
-0.3082545 0.3000858 -0.04472597 191 62 63 255 
-0.3028431 0.2107098 -0.04892897 189 62 64 255 
0.2180853 -0.008794188 0.2466708 191 62 64 255 
-0.1139595 0.3807977 -0.0002001692 191 62 63 255 
-0.2936487 0.0566358 -0.06270006 190 62 63 255 
-0.3046011 0.3758358 -0.2656674 185 58 56 255 
-0.4405875 0.2297478 0.1107588 190 62 62 255 
0.1456798 0.0484938 0.2293758 179 51 50 255 
0.2910459 -0.08813465 -0.1102584 191 63 62 255 
0.1391481 -0.01121223 0.2578362 191 62 61 255 
-0.3189489 0.1372278 0.2980278 191 61 62 255 
0.1408101 0.1385958 0.03129835 190 62 61 255 
0.2154927 -0.392643 0.2513916 181 54 53 255 
0.1936881 -0.100704 0.3023244 191 61 63 255 
0.06906858 0.04590178 0.2377458 191 63 63 255 
-0.3818247 0.06127977 -0.02503757 192 62 64 255 
-0.3672567 0.2190918 -0.02681351 189 63 64 255 
0.1398818 -0.009196222 -0.1288512 190 62 62 255 
-0.0106941 0.07256579 0.1933662 180 53 52 255 
0.06937554 0.1347378 0.03225361 189 63 62 255 
-0.4310307 0.2099178 0.1707252 190 63 63 255 
0.05921022 0.09308577 -0.06236369 163 36 34 255 
-0.3103953 0.4269798 -0.3291162 179 53 52 255 
-0.07429171 0.0989598 0.122334 189 63 62 255 
-0.4039972 0.2473698 0.1931478 165 39 38 255 
-0.4281471 -0.1007184 0.10395 190 63 61 255 
-0.07856491 0.08775175 -0.04161665 189 63 62 255 
-0.0793563 0.06138182 0.1802292 189 64 61 255 
-0.3634047 0.07736582 0.304929 189 62 62 255 
0.3045909 0.004435778 -0.04806209 190 62 62 255 
-0.3013047 -0.08920145 -0.1047588 190 62 62 255 
-0.3490335 -0.09946197 -0.08565059 189 62 63 255 
-0.3895695 -0.07587957 0.1830564 191 62 63 255 
-0.4092279 0.1748658 0.008056929 189 63 62 255 
-0.0707199 -0.395904 0.3049116 191 64 63 255 
-0.001429498 -0.3922338 0.3066336 191 64 62 255 
-0.2892297 0.3794898 -0.3433344 189 64 63 255 
-0.07415131 0.3788778 -0.1028358 191 62 64 255 
-0.2325387 0.1635258 0.1948026 189 62 64 255 
-0.2947137 0.1515738 0.264756 190 62 64 255 
-0.1502649 0.2860938 -0.04843157 191 63 63 255 
-0.2222223 -0.2177904 0.2347548 184 57 56 255 
-0.1429329 -0.1023984 -0.138999 191 63 61 255 
0.001236893 -0.0934878 0.3182568 191 64 64 255 
0.06907536 -0.08236742 0.3221154 190 63 64 255 
0.3591969 -0.2430144 0.1740102 191 63 61 255 
0.2764071 0.05490178 -0.02697671 189 63 64 255 
-0.09412411 -0.3761058 0.2672172 186 59 59 255 
-0.2186787 0.06484377 0.2087682 191 62 62 255 
0.3585969 -0.1692246 -0.03823805 191 63 62 255 
0.2833263 -0.391251 0.1795146 190 62 62 255 
-0.0844209 -0.07095361 -0.145551 181 55 53 255 
0.3340449 -0.01582623 0.1566978 189 61 60 255 
-0.06603031 -0.1036002 -0.1779828 169 40 42 255 
0.001049094 -0.383787 0.2561466 189 62 62 255 
0.1275677 -0.3600216 0.2977518 184 55 58 255 
0.3645663 -0.3715776 0.1634802 190 62 63 255 
-0.03503069 0.4408817 -0.0712062 186 57 58 255 
0.07120769 -0.3075294 0.3198204 191 63 62 255 
0.1367284 -0.3124734 0.3162582 179 52 52 255 
-0.4249689 -0.01201022 0.1003194 192 63 63 255 
-0.2348619 -0.3644418 0.180015 128 0 0 255 
-0.07278331 -0.3206394 0.2359002 191 62 62 255 
0.06911808 -0.01117021 0.260931 189 63 64 255 
-0.02351069 -0.3183666 0.2643756 180 50 51 255 
0.008069694 -0.3019344 0.3019536 191 63 63 255 
-0.2360205 0.2317998 -0.01932599 191 63 63 255 
-0.4539171 0.06784976 0.1044984 191 62 62 255 
-0.2662095 0.3039498 -0.179286 190 62 64 255 
-0.4085523 -0.005512238 0.1269036 189 62 63 255 
0.3069477 -0.3222264 0.2070342 191 62 63 255 
0.3615885 -0.3103416 0.1858836 190 61 63 255 
-0.1557909 0.05659378 0.186756 190 63 63 255 
-0.3036147 0.2937738 -0.2591748 191 63 64 255 
0.2683929 -0.0276162 0.2347644 190 62 62 255 
-0.07139671 0.4246638 -0.09080819 190 63 64 255 
-0.3526557 -0.0992052 0.226581 184 57 57 255 
-0.009808496 -0.05498099 0.2705352 180 54 53 255 
-0.2135835 -0.306111 0.1729074 191 63 64 255 
-0.1542243 -0.313086 0.2310324 191 64 63 255 
-0.3948705 0.04730582 0.2774976 189 62 62 255 
0.1915695 0.1159338 0.1543116 182 55 55 255 
-0.1283853 0.09601378 0.1463964 190 63 63 255 
-0.2516529 0.07287782 0.2363832 191 64 63 255 
-0.3164367 0.2790198 -0.190911 189 62 64 255 
-0.2397213 0.2689038 0.1672344 190 62 63 255 
-0.1830603 -0.3083562 0.2141274 191 63 62 255 
0.04060529 0.4314198 -0.1699536 184 58 57 255 
-0.4244133 -0.01015615 0.04733497 190 62 63 255 
-0.3690015 0.2773517 0.03564133 190 62 63 255 
-0.0724425 0.1098799 0.08433241 191 63 63 255 
-0.3854511 0.2797878 0.1029288 190 61 64 255 
-0.3723189 -0.02138817 -0.04068683 191 61 63 255 
-0.0442023 0.09092581 0.143787 190 64 63 255 
-0.2936871 0.3131899 -0.3236982 189 63 62 255 
-0.3659643 -0.2233824 0.1012062 191 64 64 255 
0.04693644 0.3927978 -0.1624374 190 63 63 255 
-0.2348079 -0.3183336 0.04120339 190 62 62 255 
-0.005446501 0.08676177 -0.04997843 190 64 63 255 
-0.3126087 0.2319198 -0.1116624 190 64 63 255 
-0.1425477 0.09262377 -0.06095561 189 63 63 255 
-0.3060207 0.2426118 -0.1758264 189 63 64 255 
-0.2190591 -0.3132942 0.103134 128 0 0 255 
0.003440693 -0.2372514 0.315429 183 55 57 255 
0.06852923 -0.240291 0.3352302 188 59 59 255 
0.1474862 -0.2426214 0.328551 190 61 62 255 
0.0190581 0.05527377 0.2235456 190 64 63 255 
0.4283163 -0.312024 0.156276 179 51 52 255 
0.1360338 -0.08750939 0.3180534 173 45 46 255 
-0.1536603 -0.2419194 0.2411718 190 61 62 255 
-0.07087889 -0.2381124 0.2426256 192 63 63 255 
-0.1227705 0.3251718 -0.08028299 192 64 63 255 
-0.2317365 -0.2539548 0.201717 190 64 61 255 
-0.3520617 0.2868018 -0.03903359 190 63 63 255 
-0.2263461 0.08848381 -0.06025967 192 62 63 255 
0.2111649 -0.01065421 -0.1151532 186 58 59 255 
0.4257123 -0.2527272 0.1551312 190 62 63 255 
-0.4165287 -0.08005863 0.01411669 170 43 43 255 
-0.3535917 0.3236898 -0.1819806 190 64 63 255 
-0.1596129 0.1181658 -0.02314289 192 63 63 255 
-0.08278888 -0.1675734 0.257496 191 62 62 255 
-0.2247063 -0.008464217 -0.1148454 192 62 63 255 
-0.3292785 0.01378977 -0.06006581 190 63 62 255 
-0.2272329 -0.0946548 -0.1305402 191 61 63 255 
-0.1878921 -0.250476 0.220905 190 62 62 255 
-0.1788891 0.2243838 0.03783775 186 59 59 255 
-0.3773853 0.1312518 -0.03165569 191 62 62 255 
-0.1458495 -0.01094818 -0.1226856 189 62 64 255 
0.06703416 -0.08756101 -0.2008314 190 64 64 255 
0.06913926 -0.0097242 -0.1368396 189 63 64 255 
-0.0719337 0.3032057 -0.04062635 191 63 63 255 
-0.001809299 -0.008818209 -0.134133 191 63 63 255 
-0.4261941 0.1804818 0.232908 189 63 63 255 
-0.2999985 0.1237998 -0.05527865 190 64 63 255 
0.3831783 -0.2174754 0.126582 184 57 56 255 
-0.1407765 0.05645579 -0.09095579 190 63 64 255 
0.04096889 0.3586937 -0.1228782 189 64 61 255 
-0.2145657 0.2981838 -0.02038415 190 62 64 255 
0.1368218 -0.08667481 -0.1845816 190 62 62 255 
-0.3590991 -0.2102166 0.1564572 192 63 64 255 
-0.2700897 0.2530518 -0.09366179 188 60 60 255 
-0.3078459 -0.2351166 0.180519 185 57 58 255 
-0.2221887 -0.1614654 -0.1244946 189 64 63 255 
-0.1570983 -0.1730562 0.2538426 191 63 61 255 
-0.006486304 -0.1727304 0.3309414 191 63 62 255 
0.06896292 -0.1698234 0.3433344 190 63 63 255 
0.1473516 -0.159402 0.3314418 190 62 63 255 
-0.4051989 0.2296518 0.03168685 190 64 64 255 
0.3270291 0.0158298 0.01244725 188 60 61 255 
-0.3048879 -0.1645626 0.240795 188 59 60 255 
-0.2304015 -0.1709958 0.2577306 191 62 64 255 
0.3338361 -0.1179186 -0.08667539 191 63 64 255 
-0.2807397 -0.4087014 0.2342736 190 62 63 255 
-0.3142551 0.3646638 -0.1914618 166 40 40 255 
-0.2658135 0.2878938 -0.1282242 190 63 62 255 
-0.2687463 0.3276078 -0.2412432 185 57 59 255 
-0.3071559 -0.0923298 0.2497164 190 61 64 255 
-0.1911555 0.1892358 0.08530261 189 64 61 255 
-0.3655437 0.01420379 0.2472612 190 64 62 255 
0.2126121 -0.170904 0.3078468 187 59 59 255 
0.1369264 0.0954138 -0.06329669 189 63 63 255 
-0.2291019 -0.0854286 0.2617716 190 62 61 255 
-0.1541919 -0.09385979 0.256143 191 62 62 255 
-0.0742131 -0.08247781 0.2634126 191 64 63 255 
0.2285355 -0.1238742 0.2919246 189 63 63 255 
0.2082225 0.1194258 0.02728519 190 62 64 255 
-0.06911249 -0.006238222 -0.1279578 191 62 61 255 
0.2162283 -0.077685 0.2830818 189 63 63 255 
0.06964193 0.0531798 -0.09949979 190 64 63 255 
-0.2119521 0.3293418 0.01433227 192 63 63 255 
0.3198093 -0.07139581 -0.0756672 191 62 63 255 
-0.4422759 0.1419377 0.1737138 190 62 61 255 
-0.3022815 -0.004840255 0.2387646 190 63 61 255 
-0.1600191 -0.01704419 0.2375532 178 49 49 255 
0.1499377 -0.05645216 0.2894826 189 62 61 255 
-0.2280141 -0.02316415 0.2433726 191 64 62 255 
-0.2964639 0.04774982 0.280617 190 64 62 255 
-0.1959519 0.1954038 0.01205869 191 63 62 255 
-0.2277423 0.1479678 -0.03259709 190 63 63 255 
0.0164505 0.4448298 -0.161139 189 64 62 255 
-0.07238549 0.3241458 -0.08949119 190 62 62 255 
-0.2321499 0.02110982 0.2207574 191 64 63 255 
-0.1409415 0.01642382 0.2190594 190 63 63 255 
-0.08707049 0.0162558 0.2187924 191 64 63 255 
0.2549823 0.0171138 0.217605 191 63 63 255 
-0.1769595 0.2380518 -0.01682255 191 64 64 255 
-0.005081698 -0.435135 0.3012924 184 57 56 255 
-0.002081096 0.3763518 -0.1121562 190 62 64 255 
-0.2367207 -0.4369026 0.2507598 191 63 62 255 
0.1399628 -0.4359066 0.249078 171 44 43 255 
-0.1518519 -0.4356078 0.2466528 191 62 62 255 
-0.2938095 -0.01789021 -0.09261959 191 62 63 255 
0.2594337 -0.37107 0.2252406 190 62 64 255 
0.3326331 -0.156252 -0.08839859 191 63 62 255 
-0.4015947 -0.1679238 0.1083288 191 63 63 255 
0.4244649 -0.3610122 0.1056714 178 50 51 255 
0.2168169 -0.3249312 0.2738196 189 63 62 255 
0.1489134 0.06290579 -0.09527759 186 58 59 255 
-0.08385989 0.2958438 0.002386905 183 56 56 255 
0.2766999 -0.3052962 0.2411106 184 56 56 255 
0.4539171 -0.3165426 0.104682 189 62 63 255 
0.2061465 -0.1069422 -0.1649328 190 62 63 255 
0.1924293 -0.2950908 0.2975442 190 64 63 255 
0.3253113 -0.09564179 0.2162784 191 64 63 255 
-0.01431809 0.3518717 -0.07108979 191 62 64 255 
0.1951389 -0.240138 0.3089322 186 59 58 255 
0.2312769 -0.2378556 0.2871372 179 53 52 255 
0.2842281 -0.2385906 0.2480328 191 61 64 255 
0.3259773 -0.2394552 0.2163756 190 63 63 255 
0.4498113 -0.2372214 0.09938461 183 56 55 255 
0.2950677 -0.1755 -0.1187184 189 62 62 255 
-0.3512001 0.4076718 -0.3076326 189 63 63 255 
-0.2882751 -0.2818212 0.1019538 180 53 55 255 
-0.3786531 -0.1578702 0.1804392 191 63 63 255 
0.2188119 0.08248377 -0.04514429 191 63 63 255 
0.2890665 -0.1692756 0.2554338 192 64 61 255 
0.3280953 -0.1710618 0.2172918 190 64 64 255 
0.3565821 -0.1690056 0.1740762 192 62 62 255 
0.3811545 -0.1703358 0.103146 186 58 59 255 
-0.3677901 -0.2218884 0.03766471 161 35 35 255 
-0.0714297 0.04894978 -0.09170939 190 63 63 255 
-0.4169919 0.03455579 0.02115415 190 64 62 255 
0.0196509 0.3975258 -0.1593546 190 63 64 255 
0.2098395 -0.4352736 -0.03904175 128 0 0 255 
0.2022471 -0.4314672 -0.100749 191 64 63 255 
0.2209113 -0.431559 0.1844532 162 35 35 255 
0.3662889 -0.3998916 0.03132457 190 64 63 255 
0.2406771 -0.402921 -0.05108303 189 62 62 255 
0.2197713 -0.3898602 -0.1187274 192 63 63 255 
0.3537423 -0.3727716 -0.02474117 190 63 62 255 
0.3671175 -0.3993714 0.1028496 189 64 64 255 
0.4126857 -0.3681768 0.03136147 190 62 62 255 
0.2764287 -0.01546621 -0.08889899 189 63 61 255 
0.2890113 -0.3794778 -0.04054997 190 63 63 255 
-0.005508304 -0.07771683 -0.1879308 192 62 64 255 
-0.08432791 -0.4407384 -0.173919 191 63 61 255 
0.2611911 -0.361011 -0.1029468 191 63 63 255 
0.4374807 -0.2347254 0.03190879 173 48 46 255 
0.4171869 -0.3161142 -0.01835999 191 64 63 255 
0.4453875 -0.3212178 0.02727859 191 62 63 255 
0.3617919 -0.3145806 -0.03975263 189 63 63 255 
-0.2670597 0.3579798 -0.3197694 186 58 59 255 
0.3096393 -0.3214866 -0.06037115 190 62 63 255 
0.2820705 -0.3102138 -0.1089954 189 64 62 255 
-0.001769707 0.04891378 -0.09817319 192 63 62 255 
-0.1457403 -0.431991 -0.1619346 190 63 63 255 
0.07382616 -0.3882762 -0.1674702 190 61 62 255 
-0.2934729 -0.4403628 -0.02847047 190 62 64 255 
0.3902109 -0.2192478 0.02908663 189 64 62 255 
0.2544453 -0.1514544 -0.1509966 190 63 64 255 
-0.07445191 -0.3909336 -0.1733778 190 64 63 255 
0.2358351 -0.3370332 -0.1453656 189 64 64 255 
-0.05795971 -0.4355874 0.3020898 191 63 63 255 
0.2016711 0.0472278 -0.09074099 178 51 51 255 
0.2953905 -0.2385624 -0.1135896 190 63 62 255 
0.3558981 -0.2414316 -0.03656369 191 63 62 255 
0.4138851 -0.2641848 -0.01395803 191 63 64 255 
-0.4310193 0.1233017 0.2533434 186 58 58 255 
0.3805935 -0.168768 0.03130753 191 63 63 255 
-0.3182973 0.2528298 -0.2358618 191 64 64 255 
-0.1528077 -0.388407 -0.1092432 190 61 62 255 
-0.3268437 0.4205358 -0.2882328 177 49 48 255 
-0.3513549 0.4193538 -0.2863446 169 42 42 255 
0.2874663 0.06441784 0.03095845 192 62 62 255 
-0.3579081 0.3596838 -0.1827492 184 57 57 255 
0.2265633 -0.08938622 -0.1458882 189 61 61 255 
-0.0479265 -0.167334 0.3028572 191 62 62 255 
-0.2853621 -0.4345968 0.09387182 191 64 63 255 
-0.2836431 -0.436077 0.1732182 175 48 48 255 
-0.2815977 -0.3977976 0.1792152 189 64 64 255 
-0.2809575 -0.4351956 0.229278 192 63 64 255 
-0.3006375 -0.4423728 0.03195907 190 62 63 255 
-0.3027579 -0.3953994 0.03663325 191 63 62 255 
-0.2391357 -0.3876234 0.116667 127 0 0 255 
-0.2758167 -0.3979596 0.08176081 184 56 58 255 
-0.2515155 -0.363723 0.03424189 168 40 41 255 
-0.0353379 -0.2527026 0.2671152 190 62 63 255 
-0.2762655 -0.2165622 0.2242074 190 63 63 255 
-0.0108591 -0.1604754 -0.2340612 184 57 56 255 
-0.1513611 -0.440418 -0.1182516 153 26 24 255 
0.06354828 -0.4387122 -0.124773 191 62 64 255 
-0.2891097 -0.401553 -0.02757797 179 52 51 255 
-0.1253817 -0.3950214 -0.1618938 190 63 64 255 
-0.2289885 -0.3868326 -0.04900043 190 63 64 255 
-0.1451085 -0.3943866 -0.06345113 191 63 63 255 
-0.08841391 -0.3785964 -0.1039698 190 62 62 255 
-0.0794685 -0.308568 -0.1145724 191 64 62 255 
-0.1524531 -0.309414 -0.07129619 191 63 64 255 
-0.2252085 -0.306618 -0.03535289 189 64 64 255 
-0.05215231 -0.3052506 -0.1730868 190 64 63 255 
-0.2263509 0.05821383 -0.08371679 189 62 62 255 
-0.009432301 -0.3185352 -0.194658 190 62 63 255 
-0.3076149 -0.2345358 -0.04276685 190 61 63 255 
-0.3333399 -0.2540322 0.02970115 191 64 63 255 
-0.0193779 -0.2428764 -0.2227884 191 62 61 255 
-0.06951271 -0.2419962 -0.177783 190 63 62 255 
-0.0918711 -0.24777 -0.1205994 190 62 62 255 
-0.001602307 -0.4405608 -0.1589556 154 26 25 255 
-0.3592497 -0.2070096 -0.02805665 164 37 37 255 
0.1959321 0.1100718 -0.01945409 190 62 62 255 
-0.4021905 -0.166209 0.02837173 190 62 61 255 
-0.3711477 -0.1674168 -0.04190429 189 62 62 255 
-0.08087429 -0.1697316 -0.1909554 164 38 38 255 
-0.1081239 -0.1557462 -0.1396026 191 63 61 255 
-0.3038835 -0.165816 -0.1020372 190 62 63 255 
-0.2027967 -0.4411902 -0.08087819 190 64 63 255 
0.2021169 -0.1636782 -0.1787748 190 62 62 255 
0.0182757 -0.1189878 -0.2316486 190 62 63 255 
0.001068294 -0.3869478 -0.173214 189 63 62 255 
-0.0110343 -0.05900162 -0.1522224 189 64 62 255 
-0.2283249 -0.4444626 -0.04061117 190 63 63 255 
0.1471201 -0.05950141 -0.1511034 167 42 42 255 
0.01562729 0.1098558 -0.01859795 189 63 64 255 
0.2100855 -0.3152838 -0.167124 192 62 63 255 
0.04774284 -0.1700898 -0.2313858 185 60 59 255 
0.1364185 -0.4117506 -0.1351524 190 62 63 255 
0.2103543 -0.2389488 -0.1771032 189 63 62 255 
0.07021829 0.1219098 -0.02057669 192 64 63 255 
0.1425559 0.1217299 -0.02249339 191 63 62 255 
0.1385612 -0.4385898 -0.1110612 189 63 63 255 
0.2839065 -0.431067 0.02586823 191 64 63 255 
0.1424741 -0.3707784 -0.1617396 187 57 58 255 
0.1909143 -0.3624618 -0.1543782 183 56 57 255 
0.1412077 -0.3135084 -0.1860588 189 62 62 255 
0.06815772 -0.318729 -0.1992804 187 59 58 255 
-0.1030539 -0.3038082 -0.07244219 191 64 64 255 
0.06388992 -0.238707 -0.219114 185 56 58 255 
0.1388973 -0.24081 -0.2009898 175 47 48 255 
-0.2368767 -0.2555754 -0.06096353 191 63 63 255 
-0.1487151 -0.2265858 -0.1003482 192 64 62 255 
-0.0004689023 -0.2232684 -0.232827 188 59 58 255 
-0.2285535 -0.2127624 -0.1002012 191 64 62 255 
-0.2777679 -0.218934 -0.08659139 191 62 64 255 
0.1390762 -0.172224 -0.2069838 189 62 63 255 
0.08465676 -0.1638456 -0.223806 191 63 63 255 
-0.0444303 -0.1575498 -0.2261172 186 58 58 255 
-0.1425453 -0.1717254 -0.122118 190 63 61 255 
-0.3365289 -0.1803366 -0.07668419 191 62 64 255 
-0.003409497 -0.434976 -0.120711 191 63 64 255 
-0.08449949 -0.43146 -0.1112718 190 62 62 255 
0.06884046 -0.41781 -0.09058079 192 62 63 255 
-0.001724094 -0.4170246 -0.09617219 190 63 62 255 
0.1501693 -0.4331946 -0.04247417 191 61 63 255 
0.1307887 -0.416142 -0.04652279 190 63 62 255 
0.0693264 -0.4128642 -0.03899813 190 63 62 255 
-0.0007227063 -0.4149192 -0.03854087 189 63 63 255 
-0.1532223 -0.4417176 -0.03742871 191 62 63 255 
0.2184957 -0.4359066 0.02651575 189 64 64 255 
-0.0745149 -0.416205 -0.03843101 191 63 63 255 
0.1356865 -0.4375134 0.03003949 190 64 63 255 
0.1111742 -0.421002 0.002242941 191 64 63 255 
0.06987966 -0.4165008 0.03197779 190 62 62 255 
-0.1498101 -0.4406658 0.03196543 189 62 62 255 
-0.002275504 -0.4166526 0.03249787 192 64 62 255 
0.2769345 -0.4315056 0.1090272 190 62 62 255 
-0.2251935 -0.4448298 0.03155857 190 63 64 255 
-0.0658773 -0.4176588 0.02304079 190 62 63 255 
0.09928046 -0.4321278 0.05861101 190 62 64 255 
0.2208969 -0.4354638 0.1144992 191 62 63 255 
-0.1004325 -0.4439982 0.03958063 127 0 0 255 
0.1371238 -0.4389786 0.1044522 190 62 62 255 
0.1026482 -0.4356768 0.07703221 189 64 64 255 
0.3054339 -0.4208448 0.1225788 190 62 62 255 
0.06957504 -0.417483 0.1027668 190 62 62 255 
-0.1065045 -0.4362096 0.1034838 189 63 62 255 
-0.001884304 -0.417375 0.103398 191 63 63 255 
-0.0521763 -0.419997 0.102756 191 63 64 255 
-0.2329857 -0.444495 0.1016886 190 64 63 255 
0.1118093 -0.4205862 0.130578 191 63 63 255 
0.1651143 -0.4335348 0.1744656 192 64 63 255 
0.1379701 -0.4152186 0.174495 190 63 61 255 
0.06916764 -0.4131846 0.1760808 189 63 63 255 
-0.09348449 -0.433422 0.1718712 189 63 62 255 
-0.06166771 -0.4170144 0.1902486 191 63 61 255 
-0.0024921 -0.415011 0.1742298 189 63 63 255 
-0.1466799 -0.4403334 0.1763304 127 0 0 255 
0.1964205 -0.4328826 0.2441448 189 64 64 255 
-0.2276181 -0.4410192 0.1753008 189 64 64 255 
-0.2913465 -0.2798658 0.03166249 190 63 62 255 
0.06566778 -0.436329 0.268905 127 0 0 255 
-0.0797331 -0.4379946 0.256305 191 63 63 255 
-0.003537893 -0.437667 0.2717928 190 62 62 255 
3 164 94 98 
3 224 335 49 
3 331 350 376 
3 124 122 237 
3 61 89 69 
3 61 161 94 
3 24 89 50 
3 109 25 35 
3 27 34 152 
3 444 443 435 
3 94 35 153 
3 3 61 69 
3 24 69 89 
3 38 218 104 
3 22 42 39 
3 14 24 34 
3 290 166 371 
3 226 76 224 
3 204 197 72 
3 82 3 14 
3 13 81 23 
3 99 13 23 
3 23 110 30 
3 110 2 30 
3 166 265 371 
3 90 61 3 
3 34 24 50 
3 293 167 207 
3 80 78 85 
3 61 94 164 
3 84 238 80 
3 4 161 61 
3 132 149 64 
3 196 22 228 
3 59 46 242 
3 179 84 80 
3 265 96 371 
3 52 258 207 
3 121 127 141 
3 343 168 346 
3 232 227 220 
3 232 243 227 
3 232 246 243 
3 57 126 56 
3 57 130 126 
3 221 232 220 
3 4 61 90 
3 134 80 85 
3 176 217 175 
3 4 0 161 
3 78 21 50 
3 126 130 129 
3 56 126 129 
3 111 182 201 
3 96 70 371 
3 89 164 98 
3 123 6 55 
3 197 87 72 
3 416 419 412 
3 245 80 179 
3 21 78 36 
3 61 164 89 
3 67 132 64 
3 150 149 132 
3 384 387 325 
3 214 221 112 
3 214 233 232 
3 221 214 232 
3 244 246 232 
3 233 244 232 
3 244 252 246 
3 244 143 119 
3 252 244 119 
3 127 142 141 
3 67 150 132 
3 82 90 3 
3 112 180 214 
3 244 253 143 
3 111 201 269 
3 37 74 63 
3 133 150 67 
3 118 133 67 
3 133 180 150 
3 191 214 180 
3 181 191 180 
3 191 234 233 
3 214 191 233 
3 234 244 233 
3 234 7 244 
3 244 98 253 
3 253 98 143 
3 216 217 115 
3 181 180 133 
3 15 16 219 
3 254 98 244 
3 7 254 244 
3 74 11 63 
3 14 3 24 
3 3 69 24 
3 217 216 175 
3 85 78 50 
3 73 78 80 
3 7 98 254 
3 105 133 118 
3 1 248 196 
3 48 241 100 
3 42 156 39 
3 149 173 344 
3 135 133 105 
3 106 135 105 
3 31 7 234 
3 148 31 234 
3 89 98 7 
3 31 89 7 
3 235 84 230 
3 14 27 236 
3 106 125 135 
3 19 20 62 
3 131 54 159 
3 34 50 21 
3 82 14 236 
3 201 52 43 
3 310 308 280 
3 131 159 54 
3 271 310 280 
3 27 14 34 
3 177 89 31 
3 238 73 80 
3 130 176 175 
3 354 331 381 
3 129 130 175 
3 125 136 135 
3 251 52 201 
3 106 56 125 
3 56 129 136 
3 125 56 136 
3 129 175 174 
3 136 129 174 
3 175 216 215 
3 174 175 215 
3 115 114 215 
3 216 115 215 
3 134 85 31 
3 85 177 31 
3 50 89 177 
3 85 50 177 
3 179 80 245 
3 400 407 367 
3 263 83 121 
3 217 179 115 
3 149 132 64 
3 178 187 116 
3 142 178 116 
3 326 120 319 
3 57 83 267 
3 304 391 294 
3 355 354 359 
3 128 29 11 
3 267 273 130 
3 48 16 10 
3 301 302 266 
3 196 66 22 
3 230 84 217 
3 247 13 243 
3 110 81 13 
3 271 178 266 
3 110 13 247 
3 278 277 267 
3 48 10 329 
3 258 11 275 
3 1 196 228 
3 154 247 243 
3 154 110 247 
3 263 141 270 
3 154 60 110 
3 60 154 110 
3 154 60 110 
3 11 74 37 
3 274 5 51 
3 252 154 243 
3 119 252 243 
3 109 110 60 
3 39 2 110 
3 109 39 110 
3 32 128 29 
3 32 128 11 
3 309 300 311 
3 252 119 154 
3 73 145 255 
3 67 64 259 
3 32 29 128 
3 258 275 43 
3 154 119 60 
3 119 109 60 
3 137 256 248 
3 270 267 83 
3 235 238 84 
3 267 130 57 
3 258 32 11 
3 302 310 271 
3 51 238 235 
3 266 302 271 
3 5 36 255 
3 51 235 230 
3 51 145 73 
3 286 51 230 
3 287 274 286 
3 119 25 109 
3 10 40 289 
3 120 48 329 
3 274 51 286 
3 276 230 217 
3 10 16 15 
3 51 5 145 
3 43 11 201 
3 176 276 217 
3 143 25 119 
3 158 207 167 
3 360 321 357 
3 130 273 276 
3 122 198 237 
3 270 278 267 
3 77 218 38 
3 15 6 40 
3 280 187 178 
3 271 280 178 
3 258 207 32 
3 66 58 22 
3 279 287 278 
3 155 139 172 
3 121 141 263 
3 288 41 274 
3 287 288 274 
3 276 176 130 
3 289 288 205 
3 274 41 5 
3 288 287 279 
3 329 10 289 
3 16 100 219 
3 127 178 142 
3 273 267 276 
3 252 119 243 
3 116 279 141 
3 41 123 5 
3 116 288 279 
3 142 116 141 
3 207 158 32 
3 276 277 230 
3 101 102 163 
3 299 298 294 
3 287 286 278 
3 5 255 145 
3 131 159 70 
3 275 11 43 
3 32 158 250 
3 205 288 116 
3 73 36 78 
3 120 329 319 
3 297 391 300 
3 84 179 217 
3 17 77 38 
3 255 36 73 
3 263 270 83 
3 249 248 1 
3 286 230 277 
3 11 37 66 
3 43 52 258 
3 267 277 276 
3 279 278 270 
3 141 279 270 
3 51 73 238 
3 47 36 5 
3 201 66 269 
3 201 11 66 
3 309 310 302 
3 300 309 302 
3 182 33 251 
3 278 286 277 
3 243 246 252 
3 416 427 419 
3 96 131 70 
3 66 256 111 
3 65 335 189 
3 113 374 407 
3 144 139 155 
3 226 224 139 
3 358 400 396 
3 30 91 203 
3 226 139 144 
3 46 328 242 
3 307 304 298 
3 70 159 54 
3 103 265 284 
3 443 261 446 
3 17 38 28 
3 88 200 239 
3 72 170 211 
3 138 17 28 
3 35 1 228 
3 295 299 294 
3 18 131 140 
3 18 59 131 
3 207 258 52 
3 188 70 54 
3 104 87 197 
3 222 48 120 
3 325 326 311 
3 326 281 120 
3 54 159 292 
3 386 299 295 
3 138 59 17 
3 48 100 16 
3 59 242 17 
3 296 121 83 
3 10 15 40 
3 242 91 17 
3 225 9 211 
3 314 322 384 
3 326 325 281 
3 170 225 211 
3 17 91 77 
3 144 76 226 
3 155 9 225 
3 159 131 28 
3 172 139 170 
3 131 138 28 
3 281 264 120 
3 264 222 120 
3 139 155 225 
3 139 225 170 
3 314 325 313 
3 386 295 390 
3 292 159 28 
3 132 149 344 
3 424 427 416 
3 49 335 65 
3 314 313 304 
3 111 269 66 
3 9 71 72 
3 211 9 72 
3 306 316 353 
3 307 314 304 
3 325 311 313 
3 40 41 288 
3 289 40 288 
3 40 6 41 
3 6 123 41 
3 22 39 109 
3 165 312 76 
3 299 307 298 
3 144 165 76 
3 312 107 76 
3 376 381 331 
3 165 107 312 
3 155 172 330 
3 35 228 22 
3 45 184 160 
3 42 62 156 
3 2 39 62 
3 58 42 22 
3 49 71 9 
3 280 116 187 
3 280 205 116 
3 155 330 144 
3 280 289 205 
3 319 280 308 
3 162 77 20 
3 20 77 91 
3 329 289 280 
3 319 329 280 
3 156 62 39 
3 372 408 375 
3 190 1 0 
3 1 35 0 
3 42 19 62 
3 35 161 0 
3 190 0 97 
3 35 22 109 
3 76 53 224 
3 161 35 94 
3 49 9 155 
3 224 49 155 
3 29 63 11 
3 160 162 19 
3 76 333 53 
3 153 25 143 
3 71 49 65 
3 2 20 30 
3 62 20 2 
3 55 8 5 
3 169 0 4 
3 6 8 55 
3 35 25 153 
3 160 218 162 
3 218 77 162 
3 15 334 6 
3 334 8 6 
3 332 76 93 
3 8 47 5 
3 98 153 143 
3 94 153 98 
3 219 334 15 
3 332 333 76 
3 93 76 107 
3 100 334 219 
3 160 19 45 
3 19 162 20 
3 340 132 344 
3 45 19 42 
3 27 47 8 
3 27 36 47 
3 80 115 179 
3 45 42 58 
3 71 184 45 
3 236 27 8 
3 334 236 8 
3 332 93 333 
3 27 152 36 
3 223 64 340 
3 236 334 117 
3 152 21 36 
3 134 148 115 
3 115 148 114 
3 152 34 21 
3 5 123 55 
3 337 68 191 
3 333 93 282 
3 256 66 196 
3 135 174 347 
3 183 180 195 
3 117 285 236 
3 182 111 63 
3 354 318 352 
3 114 234 68 
3 71 65 184 
3 135 136 174 
3 191 215 337 
3 337 215 114 
3 63 33 182 
3 133 135 181 
3 135 347 181 
3 110 23 81 
3 157 180 183 
3 149 157 183 
3 227 147 220 
3 12 23 30 
3 151 99 46 
3 174 215 191 
3 99 328 46 
3 114 148 234 
3 149 150 157 
3 220 147 284 
3 79 186 336 
3 68 234 191 
3 396 357 356 
3 99 23 12 
3 328 99 12 
3 337 114 68 
3 356 358 396 
3 338 343 342 
3 223 340 339 
3 265 103 96 
3 341 223 339 
3 347 174 191 
3 182 251 201 
3 134 115 80 
3 12 30 203 
3 345 343 338 
3 147 227 103 
3 33 108 251 
3 95 20 91 
3 181 347 191 
3 345 346 343 
3 157 150 180 
3 103 227 18 
3 66 240 58 
3 345 344 346 
3 146 32 108 
3 445 125 444 
3 30 95 91 
3 124 373 374 
3 137 249 72 
3 344 345 338 
3 344 168 346 
3 12 203 328 
3 284 147 103 
3 240 66 37 
3 344 173 168 
3 314 384 322 
3 107 282 93 
3 76 53 107 
3 107 53 282 
3 282 53 333 
3 165 76 107 
3 315 202 291 
3 165 144 76 
3 407 374 367 
3 144 53 76 
3 388 389 92 
3 155 144 330 
3 144 224 53 
3 432 431 434 
3 155 189 144 
3 144 189 224 
3 189 335 53 
3 224 189 53 
3 146 29 32 
3 382 88 209 
3 331 316 350 
3 331 353 316 
3 357 367 366 
3 360 357 366 
3 367 374 373 
3 366 367 373 
3 373 407 374 
3 388 92 169 
3 170 65 155 
3 155 65 189 
3 328 203 91 
3 413 421 414 
3 356 331 358 
3 242 328 91 
3 168 343 346 
3 113 198 122 
3 124 113 122 
3 239 200 315 
3 331 356 357 
3 372 26 102 
3 375 372 102 
3 26 163 102 
3 408 372 375 
3 72 87 65 
3 170 72 65 
3 87 184 65 
3 63 108 11 
3 63 29 108 
3 370 285 231 
3 389 370 231 
3 131 18 140 
3 33 63 108 
3 368 306 321 
3 374 113 124 
3 285 324 268 
3 231 285 268 
3 336 272 186 
3 224 155 139 
3 363 369 372 
3 86 193 163 
3 208 63 111 
3 380 305 202 
3 356 357 321 
3 346 354 352 
3 346 168 354 
3 168 359 354 
3 364 290 369 
3 363 364 369 
3 290 371 372 
3 369 290 372 
3 371 70 26 
3 372 371 26 
3 70 188 26 
3 188 54 26 
3 54 163 26 
3 54 86 163 
3 54 28 86 
3 28 38 86 
3 38 197 86 
3 38 104 197 
3 104 218 87 
3 218 160 87 
3 160 184 87 
3 58 240 208 
3 240 37 63 
3 208 240 63 
3 340 64 132 
3 343 168 346 
3 400 367 357 
3 396 400 357 
3 54 292 28 
3 96 103 18 
3 346 168 343 
3 249 137 248 
3 200 209 199 
3 79 222 281 
3 327 308 309 
3 343 346 352 
3 383 388 169 
3 200 88 209 
3 285 186 324 
3 241 48 79 
3 16 100 79 
3 303 100 79 
3 323 105 451 
3 100 303 186 
3 100 16 79 
3 321 353 331 
3 236 285 370 
3 389 231 92 
3 100 285 117 
3 108 63 11 
3 186 303 79 
3 88 382 209 
3 82 236 389 
3 100 241 79 
3 45 72 71 
3 0 169 97 
3 45 137 72 
3 285 100 186 
3 137 45 58 
3 199 378 305 
3 208 137 58 
3 356 331 357 
3 305 380 202 
3 378 349 305 
3 169 92 315 
3 192 262 75 
3 361 192 75 
3 291 202 237 
3 258 293 207 
3 272 79 377 
3 324 186 268 
3 268 186 88 
3 90 389 388 
3 169 315 291 
3 97 169 291 
3 79 320 377 
3 4 383 169 
3 379 317 368 
3 200 202 315 
3 92 239 315 
3 306 353 321 
3 370 389 236 
3 48 222 79 
3 206 361 185 
3 361 206 185 
3 92 231 239 
3 356 321 331 
3 190 171 185 
3 249 190 185 
3 206 198 361 
3 198 192 361 
3 90 388 383 
3 305 124 237 
3 327 311 326 
3 4 90 383 
3 190 249 1 
3 206 361 185 
3 171 206 185 
3 202 305 237 
3 108 29 146 
3 308 310 309 
3 334 100 117 
3 90 82 389 
3 79 336 186 
3 224 53 335 
3 354 381 318 
3 231 268 239 
3 186 272 209 
3 88 186 209 
3 200 199 202 
3 327 326 319 
3 308 327 319 
3 309 311 327 
3 435 443 446 
3 199 305 202 
3 97 171 190 
3 171 97 206 
3 97 291 206 
3 237 198 206 
3 291 237 206 
3 406 124 305 
3 399 402 400 
3 373 374 407 
3 300 304 311 
3 304 313 311 
3 407 213 113 
3 208 111 256 
3 403 402 399 
3 363 403 399 
3 29 128 32 
3 403 375 402 
3 363 399 359 
3 194 192 198 
3 193 86 75 
3 400 213 407 
3 272 336 79 
3 79 281 320 
3 300 302 297 
3 294 298 304 
3 299 322 314 
3 307 299 314 
3 322 384 314 
3 377 281 325 
3 387 377 325 
3 281 377 320 
3 355 358 331 
3 101 102 262 
3 363 375 403 
3 197 204 75 
3 102 101 262 
3 299 384 322 
3 262 163 193 
3 318 343 352 
3 299 322 384 
3 299 393 322 
3 322 393 384 
3 137 208 256 
3 86 197 75 
3 186 79 336 
3 222 264 281 
3 185 361 75 
3 365 360 366 
3 386 392 393 
3 299 386 393 
3 393 392 384 
3 392 394 384 
3 394 398 387 
3 384 394 387 
3 404 377 387 
3 398 404 387 
3 404 209 377 
3 209 272 377 
3 399 400 358 
3 359 399 358 
3 101 163 262 
3 262 193 75 
3 102 101 375 
3 204 72 249 
3 31 148 134 
3 424 437 427 
3 359 358 355 
3 400 402 213 
3 204 249 185 
3 351 317 386 
3 390 351 386 
3 317 392 386 
3 392 317 394 
3 317 395 394 
3 395 397 398 
3 394 395 398 
3 397 405 404 
3 398 397 404 
3 199 209 404 
3 405 199 404 
3 268 88 239 
3 75 204 185 
3 318 352 354 
3 243 18 227 
3 397 385 405 
3 385 199 405 
3 262 192 194 
3 101 262 194 
3 18 131 96 
3 349 378 199 
3 385 349 199 
3 250 158 167 
3 293 250 167 
3 379 362 395 
3 317 379 395 
3 395 362 397 
3 362 365 397 
3 365 401 397 
3 401 349 385 
3 397 401 385 
3 375 194 213 
3 213 194 113 
3 375 101 194 
3 354 352 318 
3 342 343 318 
3 375 213 402 
3 451 261 443 
3 32 250 293 
3 258 32 293 
3 113 194 198 
3 351 409 368 
3 355 331 354 
3 339 340 344 
3 372 375 363 
3 339 344 338 
3 368 321 379 
3 360 362 379 
3 360 365 362 
3 366 365 362 
3 365 366 362 
3 406 349 401 
3 365 406 401 
3 108 258 52 
3 258 108 32 
3 305 349 406 
3 297 302 301 
3 52 251 108 
3 321 360 379 
3 384 325 314 
3 373 406 365 
3 366 373 365 
3 373 349 406 
3 349 373 406 
3 373 124 406 
3 106 105 323 
3 439 434 431 
3 18 243 229 
3 83 57 260 
3 447 83 260 
3 418 425 429 
3 439 441 434 
3 441 442 434 
3 257 106 323 
3 391 425 418 
3 435 437 444 
3 257 323 452 
3 391 418 294 
3 296 440 441 
3 440 296 441 
3 131 59 138 
3 294 413 295 
3 95 30 20 
3 428 432 434 
3 422 424 415 
3 294 420 413 
3 425 296 429 
3 414 422 415 
3 425 121 296 
3 296 440 431 
3 452 323 451 
3 296 83 447 
3 431 441 439 
3 445 444 436 
3 429 296 431 
3 450 56 106 
3 301 121 433 
3 106 257 452 
3 414 415 411 
3 390 413 386 
3 18 229 59 
3 59 229 46 
3 386 414 411 
3 301 433 425 
3 248 256 196 
3 411 416 412 
3 300 391 304 
3 422 436 424 
3 46 229 151 
3 127 121 301 
3 412 419 356 
3 295 413 390 
3 351 390 411 
3 442 56 125 
3 409 351 412 
3 247 243 13 
3 330 172 155 
3 451 118 67 
3 364 44 290 
3 290 44 166 
3 166 210 265 
3 265 210 284 
3 442 436 434 
3 229 99 151 
3 364 449 44 
3 449 283 44 
3 418 420 294 
3 363 449 364 
3 212 284 210 
3 44 210 166 
3 420 428 422 
3 44 212 210 
3 247 229 243 
3 229 247 99 
3 127 266 178 
3 56 450 260 
3 413 420 421 
3 359 168 363 
3 363 168 449 
3 415 424 416 
3 296 447 260 
3 212 220 284 
3 436 437 424 
3 351 411 412 
3 440 441 431 
3 283 212 44 
3 451 67 261 
3 168 173 449 
3 449 173 283 
3 426 342 318 
3 381 426 318 
3 212 348 220 
3 266 127 301 
3 426 338 342 
3 149 283 173 
3 149 212 283 
3 438 338 426 
3 433 121 425 
3 149 183 212 
3 414 421 422 
3 172 170 155 
3 368 317 351 
3 350 381 376 
3 67 259 261 
3 183 112 212 
3 212 112 348 
3 348 112 220 
3 432 431 434 
3 448 339 338 
3 438 448 338 
3 420 431 432 
3 112 221 220 
3 428 420 432 
3 431 432 434 
3 417 381 350 
3 422 428 434 
3 423 426 381 
3 417 423 381 
3 56 260 57 
3 451 105 118 
3 296 260 440 
3 386 413 414 
3 306 350 316 
3 448 341 339 
3 415 416 411 
3 436 444 437 
3 259 341 448 
3 297 425 391 
3 442 125 445 
3 450 106 452 
3 410 350 306 
3 341 259 223 
3 355 417 350 
3 410 355 350 
3 259 64 223 
3 410 356 350 
3 356 410 350 
3 356 355 410 
3 355 419 417 
3 247 13 99 
3 195 112 183 
3 180 112 195 
3 419 355 356 
3 301 425 297 
3 390 386 411 
3 446 259 448 
3 446 261 259 
3 434 436 422 
3 421 420 422 
3 409 410 306 
3 368 409 306 
3 412 356 410 
3 409 412 410 
3 442 445 436 
3 435 423 430 
